# xmcd
#
# Track frame offsets:
#	150
#	5432
#	22077
#	37282
#	48142
#	49115
#	52917
#	56347
#	67855
#	85330
#	94170
#	98370
#	99260
#	106740
#	124152
#	140620
#	155720
#	170862
#	177967
#	184690
#	190320
#	197645
#	203875
#	213137
#
# Disc length: 3114 seconds
#
# Revision: 1
# Processed by: cddbd v1.5.1PL0 Copyright (c) Steve Scherf et al.
# Submitted via: CDex 1.50Beta5
#
DISCID=460c2818
DTITLE=Various Artist - 元祖爆れつハンター　金殿玉楼
DYEAR=1900
DGENRE=Anime
TTITLE0=プロローグ・ポテー＆じい登場！
TTITLE1=Shoot!Love Hunter
TTITLE2=温泉気分の御一行（ソーサラーハンター）
TTITLE3=欲望に燃える六つの瞳…
TTITLE4=サプタイトル
TTITLE5=“夜這いの里”のホテルにて
TTITLE6=果てしなき妄想・その一　〜キャロの場合〜
TTITLE7=逆転！ドーター（おとなりさん）只今参上
TTITLE8=マジカル☆ドーター
TTITLE9=果てしなき妄想・その二　〜ショコラの場合〜
TTITLE10=夜這い！夜這い！夜這い！
TTITLE11=アイキャッチ
TTITLE12=Whip On darling(Short Size)
TTITLE13=Tv版「爆れつハンター」未収録曲お蔵出しコーナーの一
TTITLE14=死霊使いの魔道書
TTITLE15=ミルフィー・ユのテーマ
TTITLE16=Tv版「爆れつハンター」未収録曲お蔵出しコーナーの二
TTITLE17=Shoot!Love HUNTER(Short Size)
TTITLE18=“辛抱たまらん！”モンタージュ
TTITLE19=Muscle!
TTITLE20=ドーター＆シリウス
TTITLE21=暗闇でドッキリ
TTITLE22=LOVE&4!?
TTITLE23=Whip On Darling
EXTD=
EXTT0=
EXTT1=
EXTT2=
EXTT3=
EXTT4=
EXTT5=
EXTT6=
EXTT7=
EXTT8=
EXTT9=
EXTT10=
EXTT11=
EXTT12=
EXTT13=
EXTT14=
EXTT15=
EXTT16=
EXTT17=
EXTT18=
EXTT19=
EXTT20=
EXTT21=
EXTT22=
EXTT23=
PLAYORDER=
